<svg viewBox="0 0 4512 1248"  version="1.1" xmlns="http://www.w3.org/2000/svg">
<g id="qubit_lines">
<path id="qubit_line:0" d="M64,64 L4480,64 " stroke="black"/>
<text dominant-baseline="central" text-anchor="end" font-family="monospace" font-size="12" x="64" y="64">q0</text>
<path id="qubit_line:1" d="M64,128 L4480,128 " stroke="black"/>
<text dominant-baseline="central" text-anchor="end" font-family="monospace" font-size="12" x="64" y="128">q1</text>
<path id="qubit_line:2" d="M64,192 L4480,192 " stroke="black"/>
<text dominant-baseline="central" text-anchor="end" font-family="monospace" font-size="12" x="64" y="192">q2</text>
<path id="qubit_line:3" d="M64,256 L4480,256 " stroke="black"/>
<text dominant-baseline="central" text-anchor="end" font-family="monospace" font-size="12" x="64" y="256">q3</text>
<path id="qubit_line:4" d="M64,320 L4480,320 " stroke="black"/>
<text dominant-baseline="central" text-anchor="end" font-family="monospace" font-size="12" x="64" y="320">q4</text>
<path id="qubit_line:5" d="M64,384 L4480,384 " stroke="black"/>
<text dominant-baseline="central" text-anchor="end" font-family="monospace" font-size="12" x="64" y="384">q5</text>
<path id="qubit_line:6" d="M64,448 L4480,448 " stroke="black"/>
<text dominant-baseline="central" text-anchor="end" font-family="monospace" font-size="12" x="64" y="448">q6</text>
<path id="qubit_line:7" d="M64,512 L4480,512 " stroke="black"/>
<text dominant-baseline="central" text-anchor="end" font-family="monospace" font-size="12" x="64" y="512">q7</text>
<path id="qubit_line:8" d="M64,576 L4480,576 " stroke="black"/>
<text dominant-baseline="central" text-anchor="end" font-family="monospace" font-size="12" x="64" y="576">q8</text>
<path id="qubit_line:9" d="M64,640 L4480,640 " stroke="black"/>
<text dominant-baseline="central" text-anchor="end" font-family="monospace" font-size="12" x="64" y="640">q9</text>
<path id="qubit_line:10" d="M64,704 L4480,704 " stroke="black"/>
<text dominant-baseline="central" text-anchor="end" font-family="monospace" font-size="12" x="64" y="704">q10</text>
<path id="qubit_line:11" d="M64,768 L4480,768 " stroke="black"/>
<text dominant-baseline="central" text-anchor="end" font-family="monospace" font-size="12" x="64" y="768">q11</text>
<path id="qubit_line:12" d="M64,832 L4480,832 " stroke="black"/>
<text dominant-baseline="central" text-anchor="end" font-family="monospace" font-size="12" x="64" y="832">q12</text>
<path id="qubit_line:13" d="M64,896 L4480,896 " stroke="black"/>
<text dominant-baseline="central" text-anchor="end" font-family="monospace" font-size="12" x="64" y="896">q13</text>
<path id="qubit_line:14" d="M64,960 L4480,960 " stroke="black"/>
<text dominant-baseline="central" text-anchor="end" font-family="monospace" font-size="12" x="64" y="960">q14</text>
<path id="qubit_line:15" d="M64,1024 L4480,1024 " stroke="black"/>
<text dominant-baseline="central" text-anchor="end" font-family="monospace" font-size="12" x="64" y="1024">q15</text>
<path id="qubit_line:16" d="M64,1088 L4480,1088 " stroke="black"/>
<text dominant-baseline="central" text-anchor="end" font-family="monospace" font-size="12" x="64" y="1088">q16</text>
<path id="qubit_line:17" d="M64,1152 L4480,1152 " stroke="black"/>
<text dominant-baseline="central" text-anchor="end" font-family="monospace" font-size="12" x="64" y="1152">q17</text>
</g>
<rect x="80" y="48" width="288" height="32" stroke="black" fill="white"/>
<text dominant-baseline="central" text-anchor="middle" font-family="monospace" font-size="16" x="224" y="64">COORDS(1,2,3)</text>
<rect x="400" y="48" width="32" height="32" stroke="black" fill="white"/>
<text dominant-baseline="central" text-anchor="middle" font-family="monospace" font-size="30" x="416" y="64">I</text>
<rect x="400" y="112" width="32" height="32" stroke="black" fill="white"/>
<text dominant-baseline="central" text-anchor="middle" font-family="monospace" font-size="30" x="416" y="128">X</text>
<rect x="400" y="176" width="32" height="32" stroke="black" fill="white"/>
<text dominant-baseline="central" text-anchor="middle" font-family="monospace" font-size="30" x="416" y="192">Y</text>
<rect x="400" y="240" width="32" height="32" stroke="black" fill="white"/>
<text dominant-baseline="central" text-anchor="middle" font-family="monospace" font-size="30" x="416" y="256">Z</text>
<path d="M68,40 L68,32 L444,32 L444,40 " stroke="black" fill="none"/>
<path d="M68,1208 L68,1216 L444,1216 L444,1208 " stroke="black" fill="none"/>
<rect x="464" y="48" width="32" height="32" stroke="black" fill="white"/>
<text dominant-baseline="central" text-anchor="middle" font-family="monospace" font-size="18" x="480" y="64">C<tspan baseline-shift="sub" font-size="10">XYZ</tspan></text>
<rect x="464" y="112" width="32" height="32" stroke="black" fill="white"/>
<text dominant-baseline="central" text-anchor="middle" font-family="monospace" font-size="18" x="480" y="128">C<tspan baseline-shift="sub" font-size="8">NXYZ</tspan></text>
<rect x="464" y="176" width="32" height="32" stroke="black" fill="white"/>
<text dominant-baseline="central" text-anchor="middle" font-family="monospace" font-size="18" x="480" y="192">C<tspan baseline-shift="sub" font-size="8">XNYZ</tspan></text>
<rect x="464" y="240" width="32" height="32" stroke="black" fill="white"/>
<text dominant-baseline="central" text-anchor="middle" font-family="monospace" font-size="18" x="480" y="256">C<tspan baseline-shift="sub" font-size="8">XYNZ</tspan></text>
<rect x="464" y="304" width="32" height="32" stroke="black" fill="white"/>
<text dominant-baseline="central" text-anchor="middle" font-family="monospace" font-size="18" x="480" y="320">C<tspan baseline-shift="sub" font-size="10">ZYX</tspan></text>
<rect x="464" y="368" width="32" height="32" stroke="black" fill="white"/>
<text dominant-baseline="central" text-anchor="middle" font-family="monospace" font-size="18" x="480" y="384">C<tspan baseline-shift="sub" font-size="8">NZYX</tspan></text>
<rect x="464" y="432" width="32" height="32" stroke="black" fill="white"/>
<text dominant-baseline="central" text-anchor="middle" font-family="monospace" font-size="18" x="480" y="448">C<tspan baseline-shift="sub" font-size="8">ZNYX</tspan></text>
<rect x="464" y="496" width="32" height="32" stroke="black" fill="white"/>
<text dominant-baseline="central" text-anchor="middle" font-family="monospace" font-size="18" x="480" y="512">C<tspan baseline-shift="sub" font-size="8">ZYNX</tspan></text>
<rect x="528" y="48" width="32" height="32" stroke="black" fill="white"/>
<text dominant-baseline="central" text-anchor="middle" font-family="monospace" font-size="22" x="544" y="64">H<tspan baseline-shift="sub" font-size="12">XY</tspan></text>
<rect x="528" y="112" width="32" height="32" stroke="black" fill="white"/>
<text dominant-baseline="central" text-anchor="middle" font-family="monospace" font-size="30" x="544" y="128">H</text>
<rect x="528" y="176" width="32" height="32" stroke="black" fill="white"/>
<text dominant-baseline="central" text-anchor="middle" font-family="monospace" font-size="22" x="544" y="192">H<tspan baseline-shift="sub" font-size="12">YZ</tspan></text>
<rect x="528" y="240" width="32" height="32" stroke="black" fill="white"/>
<text dominant-baseline="central" text-anchor="middle" font-family="monospace" font-size="22" x="544" y="256">H<tspan baseline-shift="sub" font-size="10">NXY</tspan></text>
<rect x="528" y="304" width="32" height="32" stroke="black" fill="white"/>
<text dominant-baseline="central" text-anchor="middle" font-family="monospace" font-size="22" x="544" y="320">H<tspan baseline-shift="sub" font-size="10">NXZ</tspan></text>
<rect x="528" y="368" width="32" height="32" stroke="black" fill="white"/>
<text dominant-baseline="central" text-anchor="middle" font-family="monospace" font-size="22" x="544" y="384">H<tspan baseline-shift="sub" font-size="10">NYZ</tspan></text>
<rect x="592" y="48" width="32" height="32" stroke="black" fill="white"/>
<text dominant-baseline="central" text-anchor="middle" font-family="monospace" font-size="24" x="608" y="64">√X</text>
<rect x="592" y="112" width="32" height="32" stroke="black" fill="white"/>
<text dominant-baseline="central" text-anchor="middle" font-family="monospace" font-size="18" x="608" y="128">√X<tspan baseline-shift="super" font-size="14">†</tspan></text>
<rect x="592" y="176" width="32" height="32" stroke="black" fill="white"/>
<text dominant-baseline="central" text-anchor="middle" font-family="monospace" font-size="24" x="608" y="192">√Y</text>
<rect x="592" y="240" width="32" height="32" stroke="black" fill="white"/>
<text dominant-baseline="central" text-anchor="middle" font-family="monospace" font-size="18" x="608" y="256">√Y<tspan baseline-shift="super" font-size="14">†</tspan></text>
<rect x="592" y="304" width="32" height="32" stroke="black" fill="white"/>
<text dominant-baseline="central" text-anchor="middle" font-family="monospace" font-size="30" x="608" y="320">S</text>
<rect x="592" y="368" width="32" height="32" stroke="black" fill="white"/>
<text dominant-baseline="central" text-anchor="middle" font-family="monospace" font-size="26" x="608" y="384">S<tspan baseline-shift="super" font-size="14">†</tspan></text>
<path d="M452,40 L452,32 L636,32 L636,40 " stroke="black" fill="none"/>
<path d="M452,1208 L452,1216 L636,1216 L636,1208 " stroke="black" fill="none"/>
<path d="M672,64 L672,128 " stroke="black"/>
<circle cx="672" cy="64" r="12" stroke="none" fill="black"/>
<path d="M666.545,58.5455 L677.455,69.4545 M677.455,58.5455 L666.545,69.4545 " stroke="white" stroke-width="4"/>
<circle cx="672" cy="128" r="12" stroke="black" fill="white"/>
<path d="M666.545,122.545 L677.455,133.455 M677.455,122.545 L666.545,133.455 " stroke="black" stroke-width="4"/>
<path d="M672,192 L672,256 " stroke="black"/>
<circle cx="672" cy="192" r="12" stroke="none" fill="gray"/>
<path d="M666,186 L678,198 M678,186 L666,198 " stroke="black" stroke-width="3"/>
<circle cx="672" cy="256" r="12" stroke="none" fill="gray"/>
<path d="M666,250 L678,262 M678,250 L666,262 " stroke="black" stroke-width="3"/>
<path d="M672,320 L672,384 " stroke="black"/>
<circle cx="672" cy="320" r="12" stroke="none" fill="gray"/>
<path d="M666,314 L678,326 M678,314 L666,326 " stroke="black" stroke-width="3"/>
<path d="M680,306 L688,306 M684,302 L684,318 " stroke="black"/>
<circle cx="672" cy="384" r="12" stroke="none" fill="gray"/>
<path d="M666,378 L678,390 M678,378 L666,390 " stroke="black" stroke-width="3"/>
<path d="M680,370 L688,370 M684,366 L684,382 " stroke="black"/>
<path d="M672,448 L672,512 " stroke="black"/>
<path d="M666,442 L678,454 M678,442 L666,454 " stroke="black" stroke-width="3"/>
<path d="M666,506 L678,518 M678,506 L666,518 " stroke="black" stroke-width="3"/>
<path d="M672,576 L672,640 " stroke="black"/>
<circle cx="672" cy="576" r="12" stroke="black" fill="white"/>
<path d="M666.545,570.545 L677.455,581.455 M677.455,570.545 L666.545,581.455 " stroke="black" stroke-width="4"/>
<circle cx="672" cy="640" r="12" stroke="none" fill="black"/>
<path d="M666.545,634.545 L677.455,645.455 M677.455,634.545 L666.545,645.455 " stroke="white" stroke-width="4"/>
<path d="M672,704 L672,768 " stroke="black"/>
<circle cx="672" cy="704" r="12" stroke="none" fill="black"/>
<path d="M666.545,698.545 L677.455,709.455 M677.455,698.545 L666.545,709.455 " stroke="white" stroke-width="4"/>
<circle cx="672" cy="768" r="12" stroke="none" fill="black"/>
<path d="M666.545,762.545 L677.455,773.455 M677.455,762.545 L666.545,773.455 " stroke="white" stroke-width="4"/>
<path d="M736,64 L736,128 " stroke="black"/>
<rect x="720" y="48" width="32" height="32" stroke="black" fill="white"/>
<text dominant-baseline="central" text-anchor="middle" font-family="monospace" font-size="16" x="736" y="64">√XX</text>
<rect x="720" y="112" width="32" height="32" stroke="black" fill="white"/>
<text dominant-baseline="central" text-anchor="middle" font-family="monospace" font-size="16" x="736" y="128">√XX</text>
<path d="M736,192 L736,256 " stroke="black"/>
<rect x="720" y="176" width="32" height="32" stroke="black" fill="white"/>
<text dominant-baseline="central" text-anchor="middle" font-family="monospace" font-size="12" x="736" y="192">√XX<tspan baseline-shift="super" font-size="10">†</tspan></text>
<rect x="720" y="240" width="32" height="32" stroke="black" fill="white"/>
<text dominant-baseline="central" text-anchor="middle" font-family="monospace" font-size="12" x="736" y="256">√XX<tspan baseline-shift="super" font-size="10">†</tspan></text>
<path d="M736,320 L736,384 " stroke="black"/>
<rect x="720" y="304" width="32" height="32" stroke="black" fill="white"/>
<text dominant-baseline="central" text-anchor="middle" font-family="monospace" font-size="16" x="736" y="320">√YY</text>
<rect x="720" y="368" width="32" height="32" stroke="black" fill="white"/>
<text dominant-baseline="central" text-anchor="middle" font-family="monospace" font-size="16" x="736" y="384">√YY</text>
<path d="M736,448 L736,512 " stroke="black"/>
<rect x="720" y="432" width="32" height="32" stroke="black" fill="white"/>
<text dominant-baseline="central" text-anchor="middle" font-family="monospace" font-size="12" x="736" y="448">√YY<tspan baseline-shift="super" font-size="10">†</tspan></text>
<rect x="720" y="496" width="32" height="32" stroke="black" fill="white"/>
<text dominant-baseline="central" text-anchor="middle" font-family="monospace" font-size="12" x="736" y="512">√YY<tspan baseline-shift="super" font-size="10">†</tspan></text>
<path d="M736,576 L736,640 " stroke="black"/>
<rect x="720" y="560" width="32" height="32" stroke="black" fill="white"/>
<text dominant-baseline="central" text-anchor="middle" font-family="monospace" font-size="16" x="736" y="576">√ZZ</text>
<rect x="720" y="624" width="32" height="32" stroke="black" fill="white"/>
<text dominant-baseline="central" text-anchor="middle" font-family="monospace" font-size="16" x="736" y="640">√ZZ</text>
<path d="M736,704 L736,768 " stroke="black"/>
<rect x="720" y="688" width="32" height="32" stroke="black" fill="white"/>
<text dominant-baseline="central" text-anchor="middle" font-family="monospace" font-size="12" x="736" y="704">√ZZ<tspan baseline-shift="super" font-size="10">†</tspan></text>
<rect x="720" y="752" width="32" height="32" stroke="black" fill="white"/>
<text dominant-baseline="central" text-anchor="middle" font-family="monospace" font-size="12" x="736" y="768">√ZZ<tspan baseline-shift="super" font-size="10">†</tspan></text>
<path d="M736,832 L736,896 " stroke="black"/>
<rect x="720" y="816" width="32" height="32" stroke="black" fill="white"/>
<text dominant-baseline="central" text-anchor="middle" font-family="monospace" font-size="16" x="736" y="832" fill="gray">II</text>
<rect x="720" y="880" width="32" height="32" stroke="black" fill="white"/>
<text dominant-baseline="central" text-anchor="middle" font-family="monospace" font-size="16" x="736" y="896" fill="gray">II</text>
<path d="M800,64 L800,128 " stroke="black"/>
<circle cx="800" cy="64" r="12" stroke="black" fill="white"/>
<path d="M788,64 L812,64 M800,52 L800,76 " stroke="black"/>
<circle cx="800" cy="128" r="12" stroke="black" fill="white"/>
<path d="M788,128 L812,128 M800,116 L800,140 " stroke="black"/>
<path d="M800,192 L800,256 " stroke="black"/>
<circle cx="800" cy="192" r="12" stroke="black" fill="white"/>
<path d="M788,192 L812,192 M800,180 L800,204 " stroke="black"/>
<path d="M800,272.8 L785.451,247.6 L814.549,247.6 Z" stroke="black" fill="gray"/>
<path d="M800,320 L800,384 " stroke="black"/>
<circle cx="800" cy="320" r="12" stroke="black" fill="white"/>
<path d="M788,320 L812,320 M800,308 L800,332 " stroke="black"/>
<circle cx="800" cy="384" r="12" stroke="none" fill="black"/>
<path d="M800,448 L800,512 " stroke="black"/>
<path d="M800,464.8 L785.451,439.6 L814.549,439.6 Z" stroke="black" fill="gray"/>
<circle cx="800" cy="512" r="12" stroke="black" fill="white"/>
<path d="M788,512 L812,512 M800,500 L800,524 " stroke="black"/>
<path d="M800,576 L800,640 " stroke="black"/>
<path d="M800,592.8 L785.451,567.6 L814.549,567.6 Z" stroke="black" fill="gray"/>
<path d="M800,656.8 L785.451,631.6 L814.549,631.6 Z" stroke="black" fill="gray"/>
<path d="M800,704 L800,768 " stroke="black"/>
<path d="M800,720.8 L785.451,695.6 L814.549,695.6 Z" stroke="black" fill="gray"/>
<circle cx="800" cy="768" r="12" stroke="none" fill="black"/>
<path d="M800,832 L800,896 " stroke="black"/>
<circle cx="800" cy="832" r="12" stroke="none" fill="black"/>
<circle cx="800" cy="896" r="12" stroke="black" fill="white"/>
<path d="M788,896 L812,896 M800,884 L800,908 " stroke="black"/>
<path d="M800,960 L800,1024 " stroke="black"/>
<circle cx="800" cy="960" r="12" stroke="none" fill="black"/>
<path d="M800,1040.8 L785.451,1015.6 L814.549,1015.6 Z" stroke="black" fill="gray"/>
<path d="M800,1088 L800,1152 " stroke="black"/>
<circle cx="800" cy="1088" r="12" stroke="none" fill="black"/>
<circle cx="800" cy="1152" r="12" stroke="none" fill="black"/>
<path d="M644,40 L644,32 L828,32 L828,40 " stroke="black" fill="none"/>
<path d="M644,1208 L644,1216 L828,1216 L828,1208 " stroke="black" fill="none"/>
<path d="M864,128 L864,256 " stroke="black"/>
<rect x="848" y="112" width="32" height="32" stroke="black" fill="pink"/>
<text dominant-baseline="central" text-anchor="middle" font-family="monospace" font-size="16" x="864" y="128">E<tspan baseline-shift="sub" font-size="10">X</tspan></text>
<rect x="848" y="176" width="32" height="32" stroke="black" fill="pink"/>
<text dominant-baseline="central" text-anchor="middle" font-family="monospace" font-size="16" x="864" y="192">E<tspan baseline-shift="sub" font-size="10">Y</tspan></text>
<rect x="848" y="240" width="32" height="32" stroke="black" fill="pink"/>
<text dominant-baseline="central" text-anchor="middle" font-family="monospace" font-size="16" x="864" y="256">E<tspan baseline-shift="sub" font-size="10">Z</tspan></text>
<text dominant-baseline="hanging" text-anchor="middle" font-family="monospace" font-size="10" stroke="red" x="864" y="276">0.01</text>
<path d="M928,320 L928,512 " stroke="black"/>
<rect x="912" y="304" width="32" height="32" stroke="black" fill="pink"/>
<text dominant-baseline="central" text-anchor="middle" font-family="monospace" font-size="16" x="928" y="320">EE<tspan baseline-shift="sub" font-size="10">X</tspan></text>
<rect x="912" y="496" width="32" height="32" stroke="black" fill="pink"/>
<text dominant-baseline="central" text-anchor="middle" font-family="monospace" font-size="16" x="928" y="512">EE<tspan baseline-shift="sub" font-size="10">Y</tspan></text>
<text dominant-baseline="hanging" text-anchor="middle" font-family="monospace" font-size="10" stroke="red" x="928" y="532">0.02</text>
<rect x="912" y="432" width="32" height="32" stroke="black" fill="pink"/>
<text dominant-baseline="central" text-anchor="middle" font-family="monospace" font-size="16" x="928" y="448">EE<tspan baseline-shift="sub" font-size="10">Z</tspan></text>
<rect x="912" y="48" width="32" height="32" stroke="black" fill="pink"/>
<text dominant-baseline="central" text-anchor="middle" font-family="monospace" font-size="12" x="928" y="64">DEP<tspan baseline-shift="sub" font-size="10">1</tspan></text>
<text dominant-baseline="hanging" text-anchor="middle" font-family="monospace" font-size="10" stroke="red" x="928" y="84">0.02</text>
<path d="M928,128 L928,192 " stroke="black"/>
<rect x="912" y="112" width="32" height="32" stroke="black" fill="pink"/>
<text dominant-baseline="central" text-anchor="middle" font-family="monospace" font-size="12" x="928" y="128">DEP<tspan baseline-shift="sub" font-size="10">2</tspan></text>
<rect x="912" y="176" width="32" height="32" stroke="black" fill="pink"/>
<text dominant-baseline="central" text-anchor="middle" font-family="monospace" font-size="12" x="928" y="192">DEP<tspan baseline-shift="sub" font-size="10">2</tspan></text>
<text dominant-baseline="hanging" text-anchor="middle" font-family="monospace" font-size="10" stroke="red" x="928" y="212">0.03</text>
<rect x="976" y="48" width="32" height="32" stroke="black" fill="red"/>
<text dominant-baseline="central" text-anchor="middle" font-family="monospace" font-size="12" x="992" y="64">LEAK<tspan baseline-shift="sub" font-size="10">1</tspan></text>
<text dominant-baseline="hanging" text-anchor="middle" font-family="monospace" font-size="10" stroke="red" x="992" y="84">0.01</text>
<rect x="976" y="112" width="32" height="32" stroke="black" fill="red"/>
<text dominant-baseline="central" text-anchor="middle" font-family="monospace" font-size="12" x="992" y="128">LEAK<tspan baseline-shift="sub" font-size="10">1</tspan></text>
<text dominant-baseline="hanging" text-anchor="middle" font-family="monospace" font-size="10" stroke="red" x="992" y="148">0.01</text>
<rect x="976" y="176" width="32" height="32" stroke="black" fill="red"/>
<text dominant-baseline="central" text-anchor="middle" font-family="monospace" font-size="12" x="992" y="192">LEAK<tspan baseline-shift="sub" font-size="10">1</tspan></text>
<text dominant-baseline="hanging" text-anchor="middle" font-family="monospace" font-size="10" stroke="red" x="992" y="212">0.01</text>
<rect x="1040" y="48" width="32" height="32" stroke="black" fill="green"/>
<text dominant-baseline="central" text-anchor="middle" font-family="monospace" font-size="12" x="1056" y="64">RELAX<tspan baseline-shift="sub" font-size="10">1</tspan></text>
<text dominant-baseline="hanging" text-anchor="middle" font-family="monospace" font-size="10" stroke="red" x="1056" y="84">0.01</text>
<rect x="1040" y="112" width="32" height="32" stroke="black" fill="green"/>
<text dominant-baseline="central" text-anchor="middle" font-family="monospace" font-size="12" x="1056" y="128">RELAX<tspan baseline-shift="sub" font-size="10">1</tspan></text>
<text dominant-baseline="hanging" text-anchor="middle" font-family="monospace" font-size="10" stroke="red" x="1056" y="148">0.01</text>
<rect x="1040" y="176" width="32" height="32" stroke="black" fill="green"/>
<text dominant-baseline="central" text-anchor="middle" font-family="monospace" font-size="12" x="1056" y="192">RELAX<tspan baseline-shift="sub" font-size="10">1</tspan></text>
<text dominant-baseline="hanging" text-anchor="middle" font-family="monospace" font-size="10" stroke="red" x="1056" y="212">0.01</text>
<rect x="1040" y="240" width="224" height="32" stroke="black" fill="pink"/>
<text dominant-baseline="central" text-anchor="middle" font-family="monospace" font-size="16" x="1152" y="256">PAULI_CHANNEL_1</text>
<text dominant-baseline="hanging" text-anchor="middle" font-family="monospace" font-size="10" stroke="red" x="1152" y="276">0.01,0.02,0.03</text>
<path d="M1056,320 L1056,384 " stroke="black"/>
<rect x="1040" y="304" width="992" height="32" stroke="black" fill="pink"/>
<text dominant-baseline="central" text-anchor="middle" font-family="monospace" font-size="16" x="1536" y="320">PAULI_CHANNEL_2<tspan baseline-shift="sub" font-size="10">0</tspan></text>
<rect x="1040" y="368" width="992" height="32" stroke="black" fill="pink"/>
<text dominant-baseline="central" text-anchor="middle" font-family="monospace" font-size="16" x="1536" y="384">PAULI_CHANNEL_2<tspan baseline-shift="sub" font-size="10">1</tspan></text>
<text dominant-baseline="hanging" text-anchor="middle" font-family="monospace" font-size="10" stroke="red" x="1536" y="404">0.001,0.002,0.003,0.004,0.005,0.006,0.007,0.008,0.009,0.01,0.011,0.012,0.013,0.014,0.015</text>
<rect x="2064" y="48" width="32" height="32" stroke="black" fill="pink"/>
<text dominant-baseline="central" text-anchor="middle" font-family="monospace" font-size="12" x="2080" y="64">ERR<tspan baseline-shift="sub" font-size="10">X</tspan></text>
<text dominant-baseline="hanging" text-anchor="middle" font-family="monospace" font-size="10" stroke="red" x="2080" y="84">0.01</text>
<rect x="2064" y="112" width="32" height="32" stroke="black" fill="pink"/>
<text dominant-baseline="central" text-anchor="middle" font-family="monospace" font-size="12" x="2080" y="128">ERR<tspan baseline-shift="sub" font-size="10">Y</tspan></text>
<text dominant-baseline="hanging" text-anchor="middle" font-family="monospace" font-size="10" stroke="red" x="2080" y="148">0.02</text>
<rect x="2064" y="176" width="32" height="32" stroke="black" fill="pink"/>
<text dominant-baseline="central" text-anchor="middle" font-family="monospace" font-size="12" x="2080" y="192">ERR<tspan baseline-shift="sub" font-size="10">Z</tspan></text>
<text dominant-baseline="hanging" text-anchor="middle" font-family="monospace" font-size="10" stroke="red" x="2080" y="212">0.03</text>
<rect x="2064" y="240" width="32" height="32" stroke="black" fill="#800000"/>
<text dominant-baseline="central" text-anchor="middle" font-family="monospace" font-size="8" x="2080" y="256" fill="white">HErase</text>
<text dominant-baseline="hanging" text-anchor="middle" font-family="monospace" font-size="10" stroke="red" x="2080" y="276">0.04</text>
<text text-anchor="middle" font-family="monospace" font-size="8" x="2080" y="236">rec[0]</text>
<rect x="2064" y="432" width="224" height="32" stroke="black" fill="#800000"/>
<text dominant-baseline="central" text-anchor="middle" font-family="monospace" font-size="14" x="2176" y="448" fill="white">HERALDED_PAULI_CHANNEL_1</text>
<text dominant-baseline="hanging" text-anchor="middle" font-family="monospace" font-size="10" stroke="red" x="2176" y="468">0.01,0.02,0.03,0.04</text>
<text text-anchor="middle" font-family="monospace" font-size="8" x="2080" y="428">rec[1]</text>
<rect x="2064" y="496" width="32" height="32" stroke="black" fill="white"/>
<text dominant-baseline="central" text-anchor="middle" font-family="monospace" font-size="12" x="2080" y="512">ERR<tspan baseline-shift="sub" font-size="10">I</tspan></text>
<text dominant-baseline="hanging" text-anchor="middle" font-family="monospace" font-size="10" stroke="red" x="2080" y="532">0.06</text>
<path d="M2080,576 L2080,640 " stroke="black"/>
<rect x="2064" y="560" width="32" height="32" stroke="black" fill="white"/>
<text dominant-baseline="central" text-anchor="middle" font-family="monospace" font-size="10" x="2080" y="576">ERR<tspan baseline-shift="sub" font-size="10">II</tspan></text>
<rect x="2064" y="624" width="32" height="32" stroke="black" fill="white"/>
<text dominant-baseline="central" text-anchor="middle" font-family="monospace" font-size="10" x="2080" y="640">ERR<tspan baseline-shift="sub" font-size="10">II</tspan></text>
<text dominant-baseline="hanging" text-anchor="middle" font-family="monospace" font-size="10" stroke="red" x="2080" y="660">0.07</text>
<path d="M836,40 L836,32 L2300,32 L2300,40 " stroke="black" fill="none"/>
<path d="M836,1208 L836,1216 L2300,1216 L2300,1208 " stroke="black" fill="none"/>
<path d="M2336,64 L2336,192 " stroke="black"/>
<rect x="2320" y="48" width="32" height="32" stroke="black" fill="black"/>
<text dominant-baseline="central" text-anchor="middle" font-family="monospace" font-size="12" x="2336" y="64" fill="white">MPP<tspan baseline-shift="sub" font-size="10">X</tspan></text>
<text text-anchor="middle" font-family="monospace" font-size="8" x="2336" y="44">rec[2]</text>
<rect x="2320" y="112" width="32" height="32" stroke="black" fill="black"/>
<text dominant-baseline="central" text-anchor="middle" font-family="monospace" font-size="12" x="2336" y="128" fill="white">MPP<tspan baseline-shift="sub" font-size="10">Y</tspan></text>
<rect x="2320" y="176" width="32" height="32" stroke="black" fill="black"/>
<text dominant-baseline="central" text-anchor="middle" font-family="monospace" font-size="12" x="2336" y="192" fill="white">MPP<tspan baseline-shift="sub" font-size="10">Z</tspan></text>
<path d="M2400,64 L2400,128 " stroke="black"/>
<rect x="2384" y="48" width="32" height="32" stroke="black" fill="black"/>
<text dominant-baseline="central" text-anchor="middle" font-family="monospace" font-size="12" x="2400" y="64" fill="white">MPP<tspan baseline-shift="sub" font-size="10">Z</tspan></text>
<text text-anchor="middle" font-family="monospace" font-size="8" x="2400" y="44">rec[3]</text>
<rect x="2384" y="112" width="32" height="32" stroke="black" fill="black"/>
<text dominant-baseline="central" text-anchor="middle" font-family="monospace" font-size="12" x="2400" y="128" fill="white">MPP<tspan baseline-shift="sub" font-size="10">Z</tspan></text>
<path d="M2464,64 L2464,192 " stroke="black"/>
<rect x="2448" y="48" width="32" height="32" stroke="black" fill="black"/>
<text dominant-baseline="central" text-anchor="middle" font-family="monospace" font-size="12" x="2464" y="64" fill="white">SPP<tspan baseline-shift="sub" font-size="10">X</tspan></text>
<rect x="2448" y="112" width="32" height="32" stroke="black" fill="black"/>
<text dominant-baseline="central" text-anchor="middle" font-family="monospace" font-size="12" x="2464" y="128" fill="white">SPP<tspan baseline-shift="sub" font-size="10">Y</tspan></text>
<rect x="2448" y="176" width="32" height="32" stroke="black" fill="black"/>
<text dominant-baseline="central" text-anchor="middle" font-family="monospace" font-size="12" x="2464" y="192" fill="white">SPP<tspan baseline-shift="sub" font-size="10">Z</tspan></text>
<rect x="2448" y="240" width="32" height="32" stroke="black" fill="black"/>
<text dominant-baseline="central" text-anchor="middle" font-family="monospace" font-size="12" x="2464" y="256" fill="white">SPP<tspan baseline-shift="sub" font-size="10">X</tspan></text>
<path d="M2528,64 L2528,192 " stroke="black"/>
<rect x="2512" y="48" width="32" height="32" stroke="black" fill="black"/>
<text dominant-baseline="central" text-anchor="middle" font-family="monospace" font-size="12" x="2528" y="64" fill="white">SPP†<tspan baseline-shift="sub" font-size="10">X</tspan></text>
<rect x="2512" y="112" width="32" height="32" stroke="black" fill="black"/>
<text dominant-baseline="central" text-anchor="middle" font-family="monospace" font-size="12" x="2528" y="128" fill="white">SPP†<tspan baseline-shift="sub" font-size="10">Y</tspan></text>
<rect x="2512" y="176" width="32" height="32" stroke="black" fill="black"/>
<text dominant-baseline="central" text-anchor="middle" font-family="monospace" font-size="12" x="2528" y="192" fill="white">SPP†<tspan baseline-shift="sub" font-size="10">Z</tspan></text>
<rect x="2576" y="176" width="32" height="32" stroke="black" fill="black"/>
<text dominant-baseline="central" text-anchor="middle" font-family="monospace" font-size="12" x="2592" y="192" fill="white">SPP†<tspan baseline-shift="sub" font-size="10">X</tspan></text>
<path d="M2308,40 L2308,32 L2620,32 L2620,40 " stroke="black" fill="none"/>
<path d="M2308,1208 L2308,1216 L2620,1216 L2620,1208 " stroke="black" fill="none"/>
<rect x="2640" y="48" width="32" height="32" stroke="black" fill="orange"/>
<text dominant-baseline="central" text-anchor="middle" font-family="monospace" font-size="12" x="2656" y="64">HLeak<tspan baseline-shift="sub" font-size="10">1</tspan></text>
<text text-anchor="middle" font-family="monospace" font-size="8" x="2656" y="44">rec[4]</text>
<rect x="2640" y="112" width="32" height="32" stroke="black" fill="orange"/>
<text dominant-baseline="central" text-anchor="middle" font-family="monospace" font-size="12" x="2656" y="128">HLeak<tspan baseline-shift="sub" font-size="10">1</tspan></text>
<text text-anchor="middle" font-family="monospace" font-size="8" x="2656" y="108">rec[5]</text>
<rect x="2640" y="176" width="32" height="32" stroke="black" fill="orange"/>
<text dominant-baseline="central" text-anchor="middle" font-family="monospace" font-size="12" x="2656" y="192">HLeak<tspan baseline-shift="sub" font-size="10">1</tspan></text>
<text text-anchor="middle" font-family="monospace" font-size="8" x="2656" y="172">rec[6]</text>
<rect x="2704" y="48" width="32" height="32" stroke="black" fill="black"/>
<text dominant-baseline="central" text-anchor="middle" font-family="monospace" font-size="16" x="2720" y="64" fill="white">MR<tspan baseline-shift="sub" font-size="14">X</tspan></text>
<text text-anchor="middle" font-family="monospace" font-size="8" x="2720" y="44">rec[7]</text>
<rect x="2704" y="112" width="32" height="32" stroke="black" fill="black"/>
<text dominant-baseline="central" text-anchor="middle" font-family="monospace" font-size="16" x="2720" y="128" fill="white">MR<tspan baseline-shift="sub" font-size="14">Y</tspan></text>
<text text-anchor="middle" font-family="monospace" font-size="8" x="2720" y="108">rec[8]</text>
<rect x="2704" y="176" width="32" height="32" stroke="black" fill="black"/>
<text dominant-baseline="central" text-anchor="middle" font-family="monospace" font-size="24" x="2720" y="192" fill="white">MR</text>
<text text-anchor="middle" font-family="monospace" font-size="8" x="2720" y="172">rec[9]</text>
<rect x="2704" y="240" width="32" height="32" stroke="black" fill="black"/>
<text dominant-baseline="central" text-anchor="middle" font-family="monospace" font-size="26" x="2720" y="256" fill="white">M<tspan baseline-shift="sub" font-size="16">X</tspan></text>
<text text-anchor="middle" font-family="monospace" font-size="8" x="2720" y="236">rec[10]</text>
<rect x="2704" y="304" width="32" height="32" stroke="black" fill="black"/>
<text dominant-baseline="central" text-anchor="middle" font-family="monospace" font-size="26" x="2720" y="320" fill="white">M<tspan baseline-shift="sub" font-size="16">Y</tspan></text>
<text text-anchor="middle" font-family="monospace" font-size="8" x="2720" y="300">rec[11]</text>
<rect x="2704" y="368" width="32" height="32" stroke="black" fill="black"/>
<text dominant-baseline="central" text-anchor="middle" font-family="monospace" font-size="30" x="2720" y="384" fill="white">M</text>
<text text-anchor="middle" font-family="monospace" font-size="8" x="2720" y="364">rec[12]</text>
<rect x="2704" y="432" width="32" height="32" stroke="black" fill="black"/>
<text dominant-baseline="central" text-anchor="middle" font-family="monospace" font-size="30" x="2720" y="448" fill="white">M</text>
<text text-anchor="middle" font-family="monospace" font-size="8" x="2720" y="428">rec[13]</text>
<rect x="2704" y="496" width="32" height="32" stroke="black" fill="black"/>
<text dominant-baseline="central" text-anchor="middle" font-family="monospace" font-size="26" x="2720" y="512" fill="white">R<tspan baseline-shift="sub" font-size="16">X</tspan></text>
<rect x="2704" y="560" width="32" height="32" stroke="black" fill="black"/>
<text dominant-baseline="central" text-anchor="middle" font-family="monospace" font-size="26" x="2720" y="576" fill="white">R<tspan baseline-shift="sub" font-size="16">Y</tspan></text>
<rect x="2704" y="624" width="32" height="32" stroke="black" fill="black"/>
<text dominant-baseline="central" text-anchor="middle" font-family="monospace" font-size="30" x="2720" y="640" fill="white">R</text>
<rect x="2768" y="48" width="32" height="32" stroke="black" fill="green"/>
<text dominant-baseline="central" text-anchor="middle" font-family="monospace" font-size="16" x="2784" y="64">RL<tspan baseline-shift="sub" font-size="10">1</tspan></text>
<path d="M2628,40 L2628,32 L2812,32 L2812,40 " stroke="black" fill="none"/>
<path d="M2628,1208 L2628,1216 L2812,1216 L2812,1208 " stroke="black" fill="none"/>
<path d="M2848,64 L2848,128 " stroke="black"/>
<rect x="2832" y="48" width="32" height="32" stroke="black" fill="black"/>
<text dominant-baseline="central" text-anchor="middle" font-family="monospace" font-size="18" x="2848" y="58" fill="white">M<tspan baseline-shift="sub" font-size="18">XX</tspan></text>
<rect x="2832" y="112" width="32" height="32" stroke="black" fill="black"/>
<text dominant-baseline="central" text-anchor="middle" font-family="monospace" font-size="18" x="2848" y="122" fill="white">M<tspan baseline-shift="sub" font-size="18">XX</tspan></text>
<path d="M2848,192 L2848,256 " stroke="black"/>
<rect x="2832" y="176" width="32" height="32" stroke="black" fill="black"/>
<text dominant-baseline="central" text-anchor="middle" font-family="monospace" font-size="18" x="2848" y="186" fill="white">M<tspan baseline-shift="sub" font-size="18">XX</tspan></text>
<rect x="2832" y="240" width="32" height="32" stroke="black" fill="black"/>
<text dominant-baseline="central" text-anchor="middle" font-family="monospace" font-size="18" x="2848" y="250" fill="white">M<tspan baseline-shift="sub" font-size="18">XX</tspan></text>
<path d="M2848,320 L2848,384 " stroke="black"/>
<rect x="2832" y="304" width="32" height="32" stroke="black" fill="black"/>
<text dominant-baseline="central" text-anchor="middle" font-family="monospace" font-size="18" x="2848" y="314" fill="white">M<tspan baseline-shift="sub" font-size="18">YY</tspan></text>
<rect x="2832" y="368" width="32" height="32" stroke="black" fill="black"/>
<text dominant-baseline="central" text-anchor="middle" font-family="monospace" font-size="18" x="2848" y="378" fill="white">M<tspan baseline-shift="sub" font-size="18">YY</tspan></text>
<path d="M2848,448 L2848,512 " stroke="black"/>
<rect x="2832" y="432" width="32" height="32" stroke="black" fill="black"/>
<text dominant-baseline="central" text-anchor="middle" font-family="monospace" font-size="18" x="2848" y="442" fill="white">M<tspan baseline-shift="sub" font-size="18">ZZ</tspan></text>
<rect x="2832" y="496" width="32" height="32" stroke="black" fill="black"/>
<text dominant-baseline="central" text-anchor="middle" font-family="monospace" font-size="18" x="2848" y="506" fill="white">M<tspan baseline-shift="sub" font-size="18">ZZ</tspan></text>
<path d="M2920,32 L2912,32 L2912,1216 L2920,1216 " stroke="black" fill="none"/>
<text dominant-baseline="auto" text-anchor="start" font-family="monospace" font-size="12" x="2916" y="1212">REP3</text>
<rect x="2960" y="48" width="32" height="32" stroke="black" fill="white"/>
<text dominant-baseline="central" text-anchor="middle" font-family="monospace" font-size="30" x="2976" y="64">H</text>
<path d="M3040,64 L3040,128 " stroke="black"/>
<circle cx="3040" cy="64" r="12" stroke="none" fill="black"/>
<circle cx="3040" cy="128" r="12" stroke="black" fill="white"/>
<path d="M3028,128 L3052,128 M3040,116 L3040,140 " stroke="black"/>
<rect x="3088" y="112" width="32" height="32" stroke="black" fill="white"/>
<text dominant-baseline="central" text-anchor="middle" font-family="monospace" font-size="30" x="3104" y="128">S</text>
<path d="M2948,40 L2948,32 L3132,32 L3132,40 " stroke="black" fill="none"/>
<path d="M2948,1208 L2948,1216 L3132,1216 L3132,1208 " stroke="black" fill="none"/>
<path d="M3160,32 L3168,32 L3168,1216 L3160,1216 " stroke="black" fill="none"/>
<rect x="3280" y="48" width="32" height="32" stroke="black" fill="black"/>
<text dominant-baseline="central" text-anchor="middle" font-family="monospace" font-size="24" x="3296" y="64" fill="white">MR</text>
<text text-anchor="middle" font-family="monospace" font-size="8" x="3296" y="44">rec[18]</text>
<rect x="3344" y="48" width="32" height="32" stroke="black" fill="pink"/>
<text dominant-baseline="central" text-anchor="middle" font-family="monospace" font-size="12" x="3360" y="64">ERR<tspan baseline-shift="sub" font-size="10">X</tspan></text>
<text dominant-baseline="hanging" text-anchor="middle" font-family="monospace" font-size="10" stroke="red" x="3360" y="84">0.1</text>
<rect x="3408" y="48" width="32" height="32" stroke="black" fill="black"/>
<text dominant-baseline="central" text-anchor="middle" font-family="monospace" font-size="24" x="3424" y="64" fill="white">MR</text>
<text dominant-baseline="hanging" text-anchor="middle" font-family="monospace" font-size="16" stroke="red" x="3424" y="84">0.01</text>
<text text-anchor="middle" font-family="monospace" font-size="8" x="3424" y="44">rec[19]</text>
<rect x="3472" y="48" width="224" height="32" stroke="black" fill="lightgray"/>
<text dominant-baseline="central" text-anchor="middle" font-family="monospace" font-size="16" x="3584" y="64">DETECTOR</text>
<text dominant-baseline="hanging" text-anchor="middle" font-family="monospace" font-size="8" x="3584" y="84">coords=(2,4,6)</text>
<text text-anchor="middle" font-family="monospace" font-size="8" x="3584" y="44">D0 = rec[19]</text>
<rect x="3728" y="48" width="160" height="32" stroke="black" fill="lightgray"/>
<text dominant-baseline="central" text-anchor="middle" font-family="monospace" font-size="16" x="3808" y="64">OBS_INCLUDE(0)</text>
<text text-anchor="middle" font-family="monospace" font-size="8" x="3808" y="44">L0 *= rec[19]</text>
<rect x="3920" y="48" width="32" height="32" stroke="black" fill="gray"/>
<text dominant-baseline="central" text-anchor="middle" font-family="monospace" font-size="18" x="3936" y="58" fill="white">M<tspan baseline-shift="sub" font-size="12">PAD</tspan></text>
<text text-anchor="middle" font-family="monospace" font-size="8" x="3936" y="44">rec[20]</text>
<rect x="3920" y="112" width="32" height="32" stroke="black" fill="gray"/>
<text dominant-baseline="central" text-anchor="middle" font-family="monospace" font-size="18" x="3936" y="122" fill="white">M<tspan baseline-shift="sub" font-size="12">PAD</tspan></text>
<text text-anchor="middle" font-family="monospace" font-size="8" x="3936" y="108">rec[21]</text>
<rect x="3984" y="48" width="32" height="32" stroke="black" fill="gray"/>
<text dominant-baseline="central" text-anchor="middle" font-family="monospace" font-size="18" x="4000" y="58" fill="white">M<tspan baseline-shift="sub" font-size="12">PAD</tspan></text>
<text text-anchor="middle" font-family="monospace" font-size="8" x="4000" y="44">rec[22]</text>
<path d="M4000,192 L4000,256 " stroke="black"/>
<rect x="3984" y="176" width="96" height="32" stroke="black" fill="lightgray"/>
<text dominant-baseline="central" text-anchor="middle" font-family="monospace" font-size="16" x="4032" y="192">L1*=Z</text>
<rect x="3984" y="240" width="96" height="32" stroke="black" fill="lightgray"/>
<text dominant-baseline="central" text-anchor="middle" font-family="monospace" font-size="16" x="4032" y="256">L1*=Z</text>
<path d="M3268,40 L3268,32 L4092,32 L4092,40 " stroke="black" fill="none"/>
<path d="M3268,1208 L3268,1216 L4092,1216 L4092,1208 " stroke="black" fill="none"/>
<rect x="4112" y="48" width="32" height="32" stroke="black" fill="black"/>
<text dominant-baseline="central" text-anchor="middle" font-family="monospace" font-size="16" x="4128" y="64" fill="white">MR<tspan baseline-shift="sub" font-size="14">X</tspan></text>
<text text-anchor="middle" font-family="monospace" font-size="8" x="4128" y="44">rec[23]</text>
<rect x="4112" y="112" width="32" height="32" stroke="black" fill="black"/>
<text dominant-baseline="central" text-anchor="middle" font-family="monospace" font-size="26" x="4128" y="128" fill="white">M<tspan baseline-shift="sub" font-size="16">Y</tspan></text>
<text text-anchor="middle" font-family="monospace" font-size="8" x="4128" y="108">rec[24]</text>
<path d="M4128,192 L4128,256 " stroke="black"/>
<rect x="4112" y="176" width="32" height="32" stroke="black" fill="black"/>
<text dominant-baseline="central" text-anchor="middle" font-family="monospace" font-size="18" x="4128" y="186" fill="white">M<tspan baseline-shift="sub" font-size="18">ZZ</tspan></text>
<rect x="4112" y="240" width="32" height="32" stroke="black" fill="black"/>
<text dominant-baseline="central" text-anchor="middle" font-family="monospace" font-size="18" x="4128" y="250" fill="white">M<tspan baseline-shift="sub" font-size="18">ZZ</tspan></text>
<rect x="4176" y="176" width="160" height="32" stroke="black" fill="lightgray"/>
<text dominant-baseline="central" text-anchor="middle" font-family="monospace" font-size="16" x="4256" y="192">OBS_INCLUDE(1)</text>
<text text-anchor="middle" font-family="monospace" font-size="8" x="4256" y="172">L1 *= rec[25]</text>
<path d="M4192,320 L4192,384 " stroke="black"/>
<rect x="4176" y="304" width="32" height="32" stroke="black" fill="black"/>
<text dominant-baseline="central" text-anchor="middle" font-family="monospace" font-size="18" x="4192" y="314" fill="white">M<tspan baseline-shift="sub" font-size="18">YY</tspan></text>
<rect x="4176" y="368" width="32" height="32" stroke="black" fill="black"/>
<text dominant-baseline="central" text-anchor="middle" font-family="monospace" font-size="18" x="4192" y="378" fill="white">M<tspan baseline-shift="sub" font-size="18">YY</tspan></text>
<path d="M4192,448 L4192,576 " stroke="black"/>
<rect x="4176" y="432" width="32" height="32" stroke="black" fill="black"/>
<text dominant-baseline="central" text-anchor="middle" font-family="monospace" font-size="12" x="4192" y="448" fill="white">MPP<tspan baseline-shift="sub" font-size="10">X</tspan></text>
<text text-anchor="middle" font-family="monospace" font-size="8" x="4192" y="428">rec[27]</text>
<rect x="4176" y="496" width="32" height="32" stroke="black" fill="black"/>
<text dominant-baseline="central" text-anchor="middle" font-family="monospace" font-size="12" x="4192" y="512" fill="white">MPP<tspan baseline-shift="sub" font-size="10">Y</tspan></text>
<rect x="4176" y="560" width="32" height="32" stroke="black" fill="black"/>
<text dominant-baseline="central" text-anchor="middle" font-family="monospace" font-size="12" x="4192" y="576" fill="white">MPP<tspan baseline-shift="sub" font-size="10">Z</tspan></text>
<path d="M4100,40 L4100,32 L4348,32 L4348,40 " stroke="black" fill="none"/>
<path d="M4100,1208 L4100,1216 L4348,1216 L4348,1208 " stroke="black" fill="none"/>
<rect x="4368" y="48" width="96" height="32" stroke="black" fill="lightgray"/>
<text dominant-baseline="central" text-anchor="middle" font-family="monospace" font-size="16" x="4416" y="64">X<tspan baseline-shift="super" font-size="10">rec[27]</tspan></text>
<rect x="4368" y="112" width="96" height="32" stroke="black" fill="lightgray"/>
<text dominant-baseline="central" text-anchor="middle" font-family="monospace" font-size="16" x="4416" y="128">Y<tspan baseline-shift="super" font-size="10">sweep[0]</tspan></text>
<rect x="4368" y="176" width="96" height="32" stroke="black" fill="lightgray"/>
<text dominant-baseline="central" text-anchor="middle" font-family="monospace" font-size="16" x="4416" y="192">Z<tspan baseline-shift="super" font-size="10">rec[27]</tspan></text>
</svg>